<?xml version="1.0" encoding="utf-8"?>
<!-- Generator: Adobe Illustrator 22.0.1, SVG Export Plug-In . SVG Version: 6.00 Build 0)  -->
<svg version="1.1" id="Layer_1" xmlns="http://www.w3.org/2000/svg" xmlns:xlink="http://www.w3.org/1999/xlink" x="0px" y="0px"
	 viewBox="0 0 100 54.9" style="enable-background:new 0 0 100 54.9;" xml:space="preserve">
<style type="text/css">
	.st0{fill:none;stroke:#1A1A1A;stroke-width:4.7216;stroke-linecap:round;stroke-linejoin:round;stroke-miterlimit:10;}
	.st1{fill:#FFFFFF;}
</style>
<g>
	<g>
		<g>
			<path class="st0" d="M70.3,49.9"/>
		</g>
	</g>
</g>
<g>
	<g>
		<g>
			<path class="st0" d="M59.9,39.4"/>
		</g>
	</g>
</g>
<g>
	<g>
		<g>
			<path class="st1" d="M32.6,52.2l-1-2.4c-0.1,0-0.3,0-0.3,0v2.4h-1v-5.9H32c1,0,1.5,0.7,1.5,1.7c0,0.9-0.4,1.4-0.9,1.7l1.1,2.5
				H32.6z M31.2,48.9h0.3c0.7,0,0.9-0.1,0.9-0.9c0-0.5-0.1-0.8-0.5-0.8h-0.7V48.9z"/>
		</g>
	</g>
	<g>
		<g>
			<path class="st1" d="M35.7,47.1v1.4h1.1v0.8h-1.1v1.9h1.6v0.8h-2.7v-5.9h2.5v0.8H35.7z"/>
		</g>
	</g>
	<g>
		<g>
			<path class="st1" d="M40.4,50.8h-1l-0.2,1.4h-1l1.2-5.9h1.1l1.2,5.9h-1.1L40.4,50.8z M40.3,49.9l-0.3-2.1h0l-0.3,2.1H40.3z"/>
		</g>
	</g>
	<g>
		<g>
			<path class="st1" d="M45.2,51.3v0.8h-2.4v-5.9h1.1v5H45.2z"/>
		</g>
	</g>
	<g>
		<g>
			<path class="st1" d="M49.4,47.1v1.4h1.1v0.8h-1.1v1.9H51v0.8h-2.7v-5.9h2.5v0.8H49.4z"/>
		</g>
	</g>
	<g>
		<g>
			<path class="st1" d="M54,47.9v-0.2c0-0.4-0.2-0.6-0.5-0.6c-0.3,0-0.5,0.2-0.5,0.5c0,0.3,0.1,0.4,0.3,0.7l1.1,1.2
				c0.4,0.5,0.7,0.8,0.7,1.5c0,0.8-0.7,1.3-1.6,1.3c-0.8,0-1.5-0.5-1.5-1.3v-0.6h1.1v0.5c0,0.4,0.2,0.5,0.5,0.5
				c0.3,0,0.5-0.2,0.5-0.5c0-0.3-0.1-0.5-0.3-0.8l-0.9-0.9c-0.6-0.7-0.8-0.8-0.8-1.6c0-0.8,0.6-1.3,1.5-1.3c0.9,0,1.5,0.5,1.5,1.3
				v0.4H54z"/>
		</g>
	</g>
	<g>
		<g>
			<path class="st1" d="M59.2,47.1h-1.1v5.1h-1.1v-5.1H56v-0.8h3.2V47.1z"/>
		</g>
	</g>
	<g>
		<g>
			<path class="st1" d="M61.5,50.8h-1l-0.2,1.4h-1l1.2-5.9h1.1l1.2,5.9h-1.1L61.5,50.8z M61.4,49.9L61,47.8h0l-0.3,2.1H61.4z"/>
		</g>
	</g>
	<g>
		<g>
			<path class="st1" d="M66.1,47.1H65v5.1H64v-5.1h-1.1v-0.8h3.2V47.1z"/>
		</g>
	</g>
	<g>
		<g>
			<path class="st1" d="M68.3,47.1v1.4h1.1v0.8h-1.1v1.9h1.6v0.8h-2.7v-5.9h2.5v0.8H68.3z"/>
		</g>
	</g>
</g>
<g>
	<g>
		<g>
			<polygon class="st1" points="50.1,1.5 45.8,6.3 45.8,12.6 49.3,12.6 49.3,9 51.1,9 51.1,12.6 54.6,12.6 54.6,6.2 			"/>
		</g>
	</g>
</g>
<g>
	<g>
		<g>
			<path class="st0" d="M27,49.4"/>
		</g>
	</g>
</g>
<g>
	<g>
		<g>
			<path class="st0" d="M37,39.2"/>
		</g>
	</g>
</g>
<g>
	<path class="st1" d="M42.5,8.3h-25c-0.4,0-0.8,0.3-0.8,0.8v12.2c0,0.4,0.3,0.8,0.8,0.8c0,0,0,0,0,0c0.2,0,0.4-0.1,0.5-0.2
		c0.1-0.1,0.2-0.3,0.2-0.5V9.8h24.3c0.2,0,0.4-0.1,0.5-0.2c0.1-0.1,0.2-0.3,0.2-0.5C43.3,8.6,42.9,8.3,42.5,8.3z"/>
	<path class="st1" d="M26.3,48.6h-8V36.7c0-0.4-0.3-0.8-0.8-0.8c-0.4,0-0.8,0.3-0.8,0.8v12.6c0,0.4,0.3,0.8,0.8,0.8h8.8
		c0.4,0,0.7-0.3,0.8-0.7c0-0.2-0.1-0.4-0.2-0.5C26.7,48.7,26.5,48.6,26.3,48.6z"/>
	<path class="st1" d="M82.1,8.3h-25c-0.4,0-0.7,0.3-0.8,0.7c0,0.2,0.1,0.4,0.2,0.5c0.1,0.1,0.3,0.2,0.5,0.2h24.3v10.9
		c0,0.2,0.1,0.4,0.2,0.5c0.1,0.1,0.3,0.2,0.5,0.2c0,0,0,0,0,0c0.4,0,0.8-0.3,0.8-0.8V9.1C82.9,8.6,82.5,8.3,82.1,8.3z"/>
	<path class="st1" d="M82.1,35.9c-0.4,0-0.8,0.3-0.8,0.8v11.9h-8c-0.2,0-0.4,0.1-0.5,0.2c-0.1,0.1-0.2,0.3-0.2,0.5
		c0,0.4,0.3,0.7,0.8,0.7h8.8c0.4,0,0.8-0.3,0.8-0.8V36.7C82.9,36.3,82.5,35.9,82.1,35.9z"/>
</g>
<g>
	<g>
		<g>
			<path class="st1" d="M65.6,18.3H34.9c-0.4,0-0.7-0.3-0.7-0.7s0.3-0.7,0.7-0.7h30.7c0.4,0,0.7,0.3,0.7,0.7S65.9,18.3,65.6,18.3z"
				/>
		</g>
	</g>
</g>
<g>
	<g>
		<g>
			<path class="st1" d="M65.6,41.9H34.9c-0.4,0-0.7-0.3-0.7-0.7c0-0.4,0.3-0.7,0.7-0.7h30.7c0.4,0,0.7,0.3,0.7,0.7
				C66.2,41.6,65.9,41.9,65.6,41.9z"/>
		</g>
	</g>
</g>
<g>
	<g>
		<g>
			<circle class="st1" cx="43" cy="31.7" r="0.7"/>
		</g>
	</g>
</g>
<g>
	<g>
		<path class="st1" d="M44.4,25.5h-1.1c-0.3,0-0.6,0.3-0.6,0.6V30c0,0.3,0.3,0.6,0.6,0.6l0,0c0.2,0,0.3-0.1,0.5-0.2
			c0.1-0.1,0.2-0.3,0.2-0.4v-3.2h0.5c1.2,0,2.2,1,2.2,2.2c0,1-0.7,1.9-1.7,2.1c-0.3,0.1-0.5,0.3-0.5,0.6l0,0.1
			c0,0.2,0.1,0.4,0.2,0.5c0.1,0.1,0.2,0.1,0.4,0.1c0,0,0.1,0,0.1,0c1.6-0.3,2.7-1.7,2.7-3.4C47.8,27,46.3,25.5,44.4,25.5z"/>
		<path class="st1" d="M62.1,25.6c-0.1-0.1-0.3-0.1-0.5,0c-0.2,0.1-0.3,0.2-0.3,0.3l-1.8,4.2L57.8,26c-0.1-0.2-0.2-0.3-0.3-0.3
			c-0.2-0.1-0.3-0.1-0.5,0c-0.2,0.1-0.3,0.2-0.3,0.3c-0.1,0.2-0.1,0.3,0,0.5L59,32l0,0c0,0,0,0,0,0l0,0.1h0c0,0,0,0,0,0l0,0v0l0.1,0
			c0,0,0,0,0,0l0.1,0c0,0,0,0,0,0l0,0l0.1,0c0,0,0,0,0,0l0,0c0,0,0.1,0,0.1,0c0,0,0.1,0,0.1,0l0.1,0c0,0,0,0,0,0l0,0l0,0
			c0,0,0.1,0,0.1,0l0.1-0.1c0,0,0,0,0,0c0,0,0,0,0-0.1c0,0,0,0,0,0l0.1,0V32c0,0,0,0,0-0.1l2.3-5.5c0.1-0.1,0.1-0.3,0-0.5
			C62.4,25.8,62.3,25.7,62.1,25.6z"/>
		<path class="st1" d="M65.8,25.5c-0.3,0-0.6,0.3-0.6,0.6v5.6c0,0.3,0.3,0.6,0.6,0.6c0.3,0,0.6-0.3,0.6-0.6v-5.6
			C66.4,25.8,66.1,25.5,65.8,25.5z"/>
		<path class="st1" d="M71.1,25.5H70c-0.3,0-0.6,0.3-0.6,0.6v5.6c0,0.3,0.3,0.6,0.6,0.6h1.1c1.9,0,3.4-1.5,3.4-3.4
			C74.6,27,73,25.5,71.1,25.5z M71.1,31.1h-0.5v-4.3h0.5c1.2,0,2.2,1,2.2,2.2C73.3,30.1,72.4,31.1,71.1,31.1z"/>
		<path class="st1" d="M81.4,28.5c-0.4-0.2-0.8-0.3-1.4-0.4c-0.5-0.1-0.9-0.2-1.1-0.4c-0.1-0.1-0.2-0.2-0.2-0.2
			c0-0.1-0.1-0.1-0.1-0.2c0-0.2,0.1-0.4,0.3-0.5c0.3-0.2,0.6-0.3,1-0.3c0.5,0,1,0.3,1.5,0.6c0.1,0.1,0.3,0.1,0.4,0.1
			c0.2,0,0.3-0.1,0.4-0.3c0.2-0.3,0.1-0.6-0.2-0.8l0,0c-0.5-0.3-1.2-0.8-2.1-0.8c-0.6,0-1.2,0.2-1.7,0.5c-0.5,0.4-0.8,0.9-0.8,1.5
			c0,0.3,0.1,0.6,0.2,0.8c0.2,0.3,0.5,0.6,0.9,0.8c0.3,0.2,0.7,0.3,1.3,0.4c0.5,0.1,1,0.3,1.3,0.4c0.1,0.1,0.2,0.2,0.3,0.3
			c0.1,0.1,0.1,0.2,0.1,0.3c0,0.2-0.1,0.4-0.4,0.6c-0.3,0.2-0.7,0.3-1.1,0.3c-0.6,0-1.3-0.4-1.7-0.7c-0.3-0.2-0.6-0.2-0.8,0.1l0,0
			c-0.2,0.3-0.2,0.6,0.1,0.8c0.6,0.4,1.4,1,2.5,1c0.7,0,1.3-0.2,1.8-0.6c0.5-0.4,0.9-1,0.9-1.6c0-0.3-0.1-0.6-0.2-0.9
			C82.2,29,81.9,28.8,81.4,28.5z"/>
		<path class="st1" d="M88.4,25.3c-0.9,0-1.8,0.4-2.4,1c-0.6,0.7-1,1.5-1,2.5c0,0.9,0.3,1.8,1,2.5c0.6,0.7,1.5,1,2.4,1
			c0.9,0,1.7-0.4,2.3-1c0.6-0.7,1-1.5,1-2.5c0-0.9-0.3-1.8-1-2.5C90.1,25.7,89.3,25.3,88.4,25.3z M89.8,30.4
			c-0.4,0.4-0.9,0.7-1.4,0.7c-0.6,0-1.1-0.2-1.5-0.7c-0.4-0.4-0.6-1-0.6-1.6c0-0.6,0.2-1.2,0.6-1.6c0.4-0.4,0.9-0.6,1.5-0.6
			c0.5,0,1,0.2,1.4,0.6c0.4,0.4,0.6,1,0.6,1.6C90.4,29.4,90.2,30,89.8,30.4z"/>
		<path class="st1" d="M53.2,25.9c-0.1-0.2-0.3-0.4-0.6-0.4c-0.2,0-0.5,0.2-0.6,0.4l-2.1,5.6c-0.1,0.3,0,0.7,0.4,0.8
			c0.1,0,0.1,0,0.2,0c0.3,0,0.5-0.2,0.6-0.4l0.4-1.2h2.2l0.4,1.2c0.1,0.2,0.3,0.4,0.6,0.4c0.1,0,0.2,0,0.2,0
			c0.3-0.1,0.5-0.5,0.4-0.8L53.2,25.9z M52,29.5l0.6-1.7l0.6,1.7H52z"/>
		<path class="st1" d="M99.2,25.6c-0.3,0-0.6,0.3-0.6,0.6v3.6l-2.9-4c-0.2-0.3-0.6-0.3-0.9-0.1c-0.2,0.1-0.3,0.3-0.2,0.5v5.5
			c0,0.3,0.3,0.6,0.6,0.6c0.3,0,0.6-0.3,0.6-0.6v-3.6l2.9,4c0,0,0,0.1,0.1,0.1c0.1,0.1,0.3,0.2,0.5,0.2c0.3,0,0.6-0.3,0.6-0.6v-5.5
			C99.8,25.9,99.5,25.6,99.2,25.6z"/>
	</g>
	<g>
		<path class="st1" d="M26.6,25.5c-0.3,0-0.6,0.3-0.6,0.6v5.6c0,0.3,0.3,0.6,0.6,0.6c0.3,0,0.6-0.3,0.6-0.6v-5.6
			C27.3,25.8,27,25.5,26.6,25.5z"/>
		<path class="st1" d="M19.1,29.4h-0.5v2.2c0,0.3-0.1,0.5-0.2,0.6c-0.1,0.1-0.3,0.2-0.5,0.2c-0.2,0-0.4-0.1-0.5-0.2
			c-0.1-0.1-0.2-0.4-0.2-0.6v-5.3c0-0.3,0.1-0.5,0.2-0.7c0.1-0.1,0.4-0.2,0.7-0.2h2.3c0.3,0,0.6,0,0.8,0c0.2,0,0.4,0.1,0.6,0.2
			c0.2,0.1,0.4,0.2,0.6,0.4c0.2,0.2,0.3,0.4,0.4,0.6c0.1,0.2,0.1,0.5,0.1,0.7c0,0.5-0.1,0.9-0.4,1.2c-0.3,0.3-0.7,0.5-1.3,0.7
			c0.2,0.1,0.5,0.3,0.7,0.6c0.2,0.3,0.4,0.5,0.6,0.8c0.2,0.3,0.3,0.6,0.4,0.8c0.1,0.2,0.1,0.4,0.1,0.5c0,0.1,0,0.2-0.1,0.3
			c-0.1,0.1-0.1,0.2-0.2,0.2c-0.1,0.1-0.2,0.1-0.3,0.1c-0.2,0-0.3,0-0.4-0.1c-0.1-0.1-0.2-0.2-0.3-0.3c-0.1-0.1-0.2-0.3-0.3-0.5
			l-0.6-0.9c-0.2-0.3-0.4-0.6-0.5-0.8c-0.2-0.2-0.3-0.3-0.5-0.4C19.6,29.5,19.4,29.4,19.1,29.4z M19.9,26.5h-1.3v1.9h1.3
			c0.3,0,0.6,0,0.9-0.1c0.2-0.1,0.4-0.2,0.5-0.3c0.1-0.1,0.2-0.3,0.2-0.6c0-0.2,0-0.4-0.1-0.5c-0.1-0.1-0.2-0.3-0.4-0.3
			C20.7,26.5,20.4,26.5,19.9,26.5z"/>
		<path class="st1" d="M3.8,26.6c0.6,0,1.1,0.2,1.5,0.5c0.3,0.2,0.7,0.2,0.9-0.1c0.2-0.3,0.2-0.7-0.1-0.9c-0.6-0.5-1.4-0.8-2.3-0.8
			c-2,0-3.6,1.6-3.6,3.5v0c0,1.9,1.6,3.5,3.6,3.5c0.8,0,1.6-0.3,2.3-0.8c0.3-0.2,0.3-0.6,0.1-0.9c-0.2-0.3-0.6-0.3-0.9-0.1
			c-0.4,0.3-0.9,0.5-1.5,0.5c-0.6,0-1.2-0.2-1.6-0.7c-0.4-0.4-0.7-1-0.7-1.6c0-0.6,0.2-1.1,0.7-1.6C2.6,26.8,3.2,26.6,3.8,26.6z"/>
		<path class="st1" d="M33.9,28.6c-0.4-0.2-0.8-0.3-1.4-0.4c-0.5-0.1-0.9-0.2-1.1-0.4c-0.1-0.1-0.2-0.2-0.2-0.2
			c0-0.1-0.1-0.1-0.1-0.2c0-0.2,0.1-0.4,0.3-0.5c0.3-0.2,0.6-0.3,1-0.3c0.5,0,1,0.3,1.5,0.6c0.1,0.1,0.3,0.1,0.4,0.1
			c0.2,0,0.3-0.1,0.4-0.3c0.2-0.3,0.1-0.6-0.2-0.8l0,0c-0.5-0.3-1.2-0.8-2.1-0.8c-0.6,0-1.2,0.2-1.7,0.5c-0.5,0.4-0.8,0.9-0.8,1.5
			c0,0.3,0.1,0.6,0.2,0.8c0.2,0.3,0.5,0.6,0.9,0.8c0.3,0.2,0.7,0.3,1.3,0.4c0.5,0.1,1,0.3,1.3,0.4c0.1,0.1,0.2,0.2,0.3,0.3
			c0.1,0.1,0.1,0.2,0.1,0.3c0,0.2-0.1,0.4-0.4,0.6c-0.3,0.2-0.7,0.3-1.1,0.3c-0.6,0-1.3-0.4-1.7-0.7c-0.3-0.2-0.6-0.2-0.8,0.1l0,0
			c-0.2,0.3-0.2,0.6,0.1,0.8c0.6,0.4,1.4,1,2.5,1c0.7,0,1.3-0.2,1.8-0.6c0.5-0.4,0.9-1,0.9-1.6c0-0.3-0.1-0.6-0.2-0.9
			C34.7,29.1,34.4,28.9,33.9,28.6z"/>
		<path class="st1" d="M13.7,25.6c-0.3,0-0.6,0.3-0.6,0.6v2.4H9.9v-2.4c0-0.3-0.3-0.6-0.6-0.6c-0.3,0-0.6,0.3-0.6,0.6v5.6
			c0,0.3,0.3,0.6,0.6,0.6c0.3,0,0.6-0.3,0.6-0.6v-2h3.2v2c0,0.3,0.3,0.6,0.6,0.6c0.3,0,0.6-0.3,0.6-0.6v-5.6
			C14.3,25.8,14,25.6,13.7,25.6z"/>
	</g>
</g>
</svg>
